<?xml version="1.0" encoding="UTF-8" standalone="no"?>
<svg
   xmlns:dc="http://purl.org/dc/elements/1.1/"
   xmlns:cc="http://creativecommons.org/ns#"
   xmlns:rdf="http://www.w3.org/1999/02/22-rdf-syntax-ns#"
   xmlns:svg="http://www.w3.org/2000/svg"
   xmlns="http://www.w3.org/2000/svg"
   viewBox="0 0 105.8268 105.8268"
   height="105.8268"
   width="105.8268"
   xml:space="preserve"
   id="svg2"
   version="1.1"><metadata
     id="metadata8"><rdf:RDF><cc:Work
         rdf:about=""><dc:format>image/svg+xml</dc:format><dc:type
           rdf:resource="http://purl.org/dc/dcmitype/StillImage" /></cc:Work></rdf:RDF></metadata><defs
     id="defs6"><clipPath
       id="clipPath18"
       clipPathUnits="userSpaceOnUse"><path
         id="path16"
         d="M 0,0 H 79.37 V 79.37 H 0 Z" /></clipPath></defs><g
     transform="matrix(1.3333333,0,0,-1.3333333,0,105.8268)"
     id="g10"><g
       id="g12"><g
         clip-path="url(#clipPath18)"
         id="g14"><g
           transform="translate(39.6972)"
           id="g20"><path
             id="path22"
             style="fill:#fff200;fill-opacity:1;fill-rule:nonzero;stroke:none"
             d="M 0,0 C 21.917,0 39.685,17.768 39.685,39.685 39.685,61.602 21.917,79.37 0,79.37 -21.917,79.37 -39.685,61.602 -39.685,39.685 -39.685,17.768 -21.917,0 0,0" /></g></g></g><text
       id="text26"
       style="font-variant:normal;font-weight:normal;font-stretch:normal;font-size:9.39579964px;font-family:'Univers LT Std 55';-inkscape-font-specification:UniversLTStd;writing-mode:lr-tb;fill:#231f20;fill-opacity:1;fill-rule:nonzero;stroke:none"
       transform="matrix(1,0,0,-1,21.4258,51.2099)"><tspan
         id="tspan24"
         y="0"
         x="0 2.6120324 5.2240648 11.166908 16.499964 19.173069 24.956184 30.802252 36.543083">I belong </tspan></text>
<text
       id="text30"
       style="font-variant:normal;font-weight:normal;font-stretch:normal;font-size:9.39579964px;font-family:'Univers LT Std 55';-inkscape-font-specification:UniversLTStd;writing-mode:lr-tb;fill:#231f20;fill-opacity:1;fill-rule:nonzero;stroke:none"
       transform="matrix(1,0,0,-1,26.787,41.586)"><tspan
         id="tspan28"
         y="0"
         x="0 3.2030282 8.943862 11.555895 14.769258 20.594654">to the</tspan></text>
<text
       id="text34"
       style="font-variant:normal;font-weight:normal;font-stretch:normal;font-size:9.39579964px;font-family:'Univers LT Std 55';-inkscape-font-specification:UniversLTStd;writing-mode:lr-tb;fill:#231f20;fill-opacity:1;fill-rule:nonzero;stroke:none"
       transform="matrix(1,0,0,-1,10.9185,31.962)"><tspan
         id="tspan32"
         y="0"
         x="0 4.8435349 10.117397 16.021719 20.719618 23.33165 28.305786 31.563311 37.368977 43.241352 48.564072 54.42799 57.556793">kabk student </tspan></text>
<text
       id="text38"
       style="font-variant:normal;font-weight:normal;font-stretch:normal;font-size:9.39579964px;font-family:'Univers LT Std 55';-inkscape-font-specification:UniversLTStd;writing-mode:lr-tb;fill:#231f20;fill-opacity:1;fill-rule:nonzero;stroke:none"
       transform="matrix(1,0,0,-1,26.8524,22.3381)"><tspan
         id="tspan36"
         y="0"
         x="0 5.7380152 11.516432 14.166048 19.944464">union</tspan></text>
</g></svg>